<?xml version="1.0" encoding="UTF-8"?>
<svg width="14px" height="14px" viewBox="0 0 14 14" version="1.1" xmlns="http://www.w3.org/2000/svg" xmlns:xlink="http://www.w3.org/1999/xlink">
    <!-- Generator: sketchtool 55.2 (78181) - https://sketchapp.com -->
    <title>045485E4-C0A2-40E4-9E75-67694633130F</title>
    <desc>Created with sketchtool.</desc>
    <g id="Desktop" stroke="none" stroke-width="1" fill="none" fill-rule="evenodd">
        <g id="Dashboard" transform="translate(-1251.000000, -212.000000)">
            <g id="Table-/-Components-/-Dashboard-Table" transform="translate(225.000000, 196.000000)">
                <g id="Icons-/-Add" transform="translate(1021.000000, 11.000000)">
                    <g id="Add-Icon">
                        <polygon id="Bounding_Boxes" points="0 0 24 0 24 24 0 24"></polygon>
                        <path d="M18,13 L13,13 L13,18 C13,18.55 12.55,19 12,19 C11.45,19 11,18.55 11,18 L11,13 L6,13 C5.45,13 5,12.55 5,12 C5,11.45 5.45,11 6,11 L11,11 L11,6 C11,5.45 11.45,5 12,5 C12.55,5 13,5.45 13,6 L13,11 L18,11 C18.55,11 19,11.45 19,12 C19,12.55 18.55,13 18,13 Z" id="Mask" fill="#ffffff" fill-rule="nonzero"></path>
                    </g>
                </g>
            </g>
        </g>
    </g>
</svg>