<?xml version="1.0" encoding="UTF-8"?>
<svg width="18px" height="18px" viewBox="0 0 18 18" version="1.1" xmlns="http://www.w3.org/2000/svg" xmlns:xlink="http://www.w3.org/1999/xlink">
    <!-- Generator: sketchtool 55.2 (78181) - https://sketchapp.com -->
    <title>2CBE7240-8521-42D4-ACCB-140E696479E3</title>
    <desc>Created with sketchtool.</desc>
    <g id="Desktop" stroke="none" stroke-width="1" fill="none" fill-rule="evenodd">
        <g id="Dashboard-(Expanded-Menu)" transform="translate(-1068.000000, -26.000000)">
            <g id="Top">
                <g id="Group" transform="translate(985.000000, 17.000000)">
                    <g id="Icons-/-Chat" transform="translate(82.000000, 8.000000)">
                        <g id="Chat-Icon">
                            <polygon id="Bounding_Boxes" points="0 0 20 0 20 20 0 20"></polygon>
                            <path d="M16.6666667,1.66666667 L3.33333333,1.66666667 C2.41666667,1.66666667 1.675,2.41666667 1.675,3.33333333 L1.66666667,18.3333333 L5,15 L16.6666667,15 C17.5833333,15 18.3333333,14.25 18.3333333,13.3333333 L18.3333333,3.33333333 C18.3333333,2.41666667 17.5833333,1.66666667 16.6666667,1.66666667 Z M5.83333333,7.5 L14.1666667,7.5 C14.625,7.5 15,7.875 15,8.33333333 C15,8.79166667 14.625,9.16666667 14.1666667,9.16666667 L5.83333333,9.16666667 C5.375,9.16666667 5,8.79166667 5,8.33333333 C5,7.875 5.375,7.5 5.83333333,7.5 Z M10.8333333,11.6666667 L5.83333333,11.6666667 C5.375,11.6666667 5,11.2916667 5,10.8333333 C5,10.375 5.375,10 5.83333333,10 L10.8333333,10 C11.2916667,10 11.6666667,10.375 11.6666667,10.8333333 C11.6666667,11.2916667 11.2916667,11.6666667 10.8333333,11.6666667 Z M14.1666667,6.66666667 L5.83333333,6.66666667 C5.375,6.66666667 5,6.29166667 5,5.83333333 C5,5.375 5.375,5 5.83333333,5 L14.1666667,5 C14.625,5 15,5.375 15,5.83333333 C15,6.29166667 14.625,6.66666667 14.1666667,6.66666667 Z" id="Shape" fill="#FFFFFF" fill-rule="nonzero"></path>
                        </g>
                    </g>
                </g>
            </g>
        </g>
    </g>
</svg>