<?xml version="1.0" encoding="UTF-8"?>
<svg width="18px" height="18px" viewBox="0 0 18 18" version="1.1" xmlns="http://www.w3.org/2000/svg" xmlns:xlink="http://www.w3.org/1999/xlink">
    <!-- Generator: sketchtool 55.2 (78181) - https://sketchapp.com -->
    <title>F321EB3C-97DF-4C36-B968-55FF717050A8</title>
    <desc>Created with sketchtool.</desc>
    <defs>
        <path d="M4,13 L10,13 C10.55,13 11,12.55 11,12 L11,4 C11,3.45 10.55,3 10,3 L4,3 C3.45,3 3,3.45 3,4 L3,12 C3,12.55 3.45,13 4,13 Z M4,21 L10,21 C10.55,21 11,20.55 11,20 L11,16 C11,15.45 10.55,15 10,15 L4,15 C3.45,15 3,15.45 3,16 L3,20 C3,20.55 3.45,21 4,21 Z M14,21 L20,21 C20.55,21 21,20.55 21,20 L21,12 C21,11.45 20.55,11 20,11 L14,11 C13.45,11 13,11.45 13,12 L13,20 C13,20.55 13.45,21 14,21 Z M13,4 L13,8 C13,8.55 13.45,9 14,9 L20,9 C20.55,9 21,8.55 21,8 L21,4 C21,3.45 20.55,3 20,3 L14,3 C13.45,3 13,3.45 13,4 Z" id="path-1"></path>
    </defs>
    <g id="Desktop" stroke="none" stroke-width="1" fill="none" fill-rule="evenodd">
        <g id="Dashboard-(Expanded-Menu)" transform="translate(-26.000000, -166.000000)">
            <g id="Sidebar" transform="translate(0.000000, 70.000000)">
                <g id="Group">
                    <g id="Dashboard" transform="translate(0.000000, 70.000000)">
                        <g id="Icon" transform="translate(23.000000, 23.000000)">
                            <g id="Dashboard-Icon">
                                <polygon id="Bounding_Boxes" points="0 0 24 0 24 24 0 24"></polygon>
                                <mask id="mask-2" fill="white">
                                    <use xlink:href="#path-1"></use>
                                </mask>
                                <use id="Mask" fill="#C0C5D2" fill-rule="nonzero" xlink:href="#path-1"></use>
                            </g>
                        </g>
                    </g>
                </g>
            </g>
        </g>
    </g>
</svg>