<?xml version="1.0" encoding="UTF-8"?>
<svg width="20px" height="19px" viewBox="0 0 20 19" version="1.1" xmlns="http://www.w3.org/2000/svg" xmlns:xlink="http://www.w3.org/1999/xlink">
    <!-- Generator: sketchtool 55.2 (78181) - https://sketchapp.com -->
    <title>0D27BD42-9F22-4BBD-B5F1-CAC377649ABD</title>
    <desc>Created with sketchtool.</desc>
    <g id="Desktop" stroke="none" stroke-width="1" fill="none" fill-rule="evenodd">
        <g id="Dashboard-(Expanded-Menu)" transform="translate(-1141.000000, -26.000000)">
            <g id="Top">
                <g id="Icons-/-Gift" transform="translate(1139.000000, 23.000000)">
                    <g id="Gift-icon">
                        <polygon id="Bounding_Boxes" points="0 0 24 0 24 24 0 24"></polygon>
                        <path d="M20,7 L17.82,7 C17.93,6.69 18,6.35 18,6 C18,4.34 16.66,3 15,3 C13.95,3 13.04,3.54 12.5,4.35 L12,5.02 L11.5,4.34 C10.96,3.54 10.05,3 9,3 C7.34,3 6,4.34 6,6 C6,6.35 6.07,6.69 6.18,7 L4,7 C2.89,7 2.01,7.89 2.01,9 L2,20 C2,21.11 2.89,22 4,22 L20,22 C21.11,22 22,21.11 22,20 L22,9 C22,7.89 21.11,7 20,7 Z M15,5 C15.55,5 16,5.45 16,6 C16,6.55 15.55,7 15,7 C14.45,7 14,6.55 14,6 C14,5.45 14.45,5 15,5 Z M9,5 C9.55,5 10,5.45 10,6 C10,6.55 9.55,7 9,7 C8.45,7 8,6.55 8,6 C8,5.45 8.45,5 9,5 Z M20,20 L4,20 L4,18 L20,18 L20,20 Z M20,15 L4,15 L4,10 C4,9.45 4.45,9 5,9 L9.08,9 L7.6,11.02 C7.27,11.47 7.37,12.1 7.82,12.42 C8.26,12.74 8.89,12.64 9.21,12.2 L12,8.4 L14.79,12.2 C15.11,12.64 15.74,12.74 16.18,12.42 C16.63,12.1 16.73,11.47 16.4,11.02 L14.92,9 L19,9 C19.55,9 20,9.45 20,10 L20,15 Z" id="Mask" fill="#007BBB" fill-rule="nonzero"></path>
                    </g>
                </g>
            </g>
        </g>
    </g>
</svg>