<?xml version="1.0" encoding="UTF-8"?>
<svg width="18px" height="22px" viewBox="0 0 18 22" version="1.1" xmlns="http://www.w3.org/2000/svg" xmlns:xlink="http://www.w3.org/1999/xlink">
    <!-- Generator: sketchtool 55.2 (78181) - https://sketchapp.com -->
    <title>505703E6-58AB-4792-BE47-A0572A727182</title>
    <desc>Created with sketchtool.</desc>
    <defs>
        <path d="M10.01,21.01 L13.99,21.01 C13.99,22.11 13.1,23 12,23 C10.9,23 10.01,22.11 10.01,21.01 Z M10.5,3 C10.5,2.17 11.17,1.5 12,1.5 C12.83,1.5 13.5,2.17 13.5,3 L13.5,4.17 C16.64,4.85 19,7.65 19,11 L19,15.5857864 C19,16.4912922 19.3597108,17.3597108 20,18 L20.6464466,18.6464466 C20.872823,18.872823 21,19.1798554 21,19.5 C21,19.7761424 20.7761424,20 20.5,20 L3.5,20 C3.22385763,20 3,19.7761424 3,19.5 C3,19.1798554 3.12717696,18.872823 3.35355339,18.6464466 L4,18 C4.64028925,17.3597108 5,16.4912922 5,15.5857864 L5,11 C5,7.65 7.36,4.85 10.5,4.17 L10.5,3 Z" id="path-1"></path>
    </defs>
    <g id="Desktop" stroke="none" stroke-width="1" fill="none" fill-rule="evenodd">
        <g id="Dashboard-(Expanded-Menu)" transform="translate(-1196.000000, -24.000000)">
            <g id="Top">
                <g id="Icons-/-Notification" transform="translate(1193.000000, 23.000000)">
                    <g id="Notification-icon">
                        <polygon id="Bounding_Boxes" points="0 0 24 0 24 24 0 24"></polygon>
                        <mask id="mask-2" fill="white">
                            <use xlink:href="#path-1"></use>
                        </mask>
                        <use id="Mask" fill="#007BBB" fill-rule="nonzero" xlink:href="#path-1"></use>
                    </g>
                </g>
            </g>
        </g>
    </g>
</svg>