<?xml version="1.0" encoding="UTF-8"?>
<svg width="21px" height="18px" viewBox="0 0 21 18" version="1.1" xmlns="http://www.w3.org/2000/svg" xmlns:xlink="http://www.w3.org/1999/xlink">
    <!-- Generator: sketchtool 55.2 (78181) - https://sketchapp.com -->
    <title>E7C2100D-C92C-45BE-9879-2B65E3AAE332</title>
    <desc>Created with sketchtool.</desc>
    <g id="Desktop" stroke="none" stroke-width="1" fill="none" fill-rule="evenodd">
        <g id="Dashboard-(Expanded-Menu)" transform="translate(-25.000000, -516.000000)">
            <g id="Sidebar" transform="translate(0.000000, 70.000000)">
                <g id="Group">
                    <g id="Reports" transform="translate(0.000000, 420.000000)">
                        <g id="Icon" transform="translate(23.000000, 23.000000)">
                            <g id="Reports-Icon">
                                <polygon id="Bounding_Boxes" points="0 0 24 0 24 24 0 24"></polygon>
                                <path d="M20.2941279,19.1 C20.4098158,19.1 20.5,19.0127122 20.5,18.9167983 C20.5,18.8208844 20.4098158,18.7335966 20.2941279,18.7335966 L3.91174412,18.7335966 L3.91174412,4.6832017 C3.91174412,4.5872878 3.8215599,4.5 3.70587206,4.5 C3.59018423,4.5 3.5,4.5872878 3.5,4.6832017 L3.5,18.9167983 C3.5,19.0127122 3.59018423,19.1 3.70587206,19.1 L20.2941279,19.1 Z M4.91174412,17.7335966 L20.2941279,17.7335966 C20.9549276,17.7335966 21.5,18.261163 21.5,18.9167983 C21.5,19.5724336 20.9549276,20.1 20.2941279,20.1 L3.70587206,20.1 C3.04507237,20.1 2.5,19.5724336 2.5,18.9167983 L2.5,4.6832017 C2.5,4.02756638 3.04507237,3.5 3.70587206,3.5 C4.36667176,3.5 4.91174412,4.02756638 4.91174412,4.6832017 L4.91174412,17.7335966 Z M14.8286071,9.78183703 L18.2902068,6.20802378 L16.4705948,6.20802378 C15.8097951,6.20802378 15.2647228,5.6804574 15.2647228,5.02482208 C15.2647228,4.36918676 15.8097951,3.84162039 16.4705948,3.84162039 L21.1765162,3.84162039 C21.8373159,3.84162039 22.3823883,4.36918676 22.3823883,5.02482208 L22.3823883,9.69343864 C22.3823883,10.349074 21.8373159,10.8766403 21.1765162,10.8766403 C20.5157165,10.8766403 19.9706442,10.349074 19.9706442,9.69343864 L19.9706442,7.90619083 L15.834346,12.1544843 C15.4121784,12.6020242 14.7120891,12.6609482 14.2310439,12.292296 L12.0397403,10.6623438 L8.35007023,14.4225096 C8.1176385,14.6661968 7.80133539,14.7937468 7.47061502,14.7937468 C7.16807757,14.7937468 6.88653374,14.689701 6.64824822,14.4781621 C6.15892099,14.0243239 6.13981869,13.2661349 6.60781308,12.7935109 L11.0440212,8.27194897 C11.4677911,7.84228328 12.1604284,7.78894446 12.6420736,8.15539945 L14.8286071,9.78183703 Z M20.2941279,19.6 L3.70587206,19.6 C3.3176283,19.6 3,19.2925729 3,18.9167983 L3,4.6832017 C3,4.30742709 3.3176283,4 3.70587206,4 C4.09411583,4 4.41174412,4.30742709 4.41174412,4.6832017 L4.41174412,18.2335966 L20.2941279,18.2335966 C20.6823717,18.2335966 21,18.5410237 21,18.9167983 C21,19.2925729 20.6823717,19.6 20.2941279,19.6 Z M12.3411847,8.5547431 L14.8823726,10.4449879 L19.4706016,5.70802378 L16.4705948,5.70802378 C16.0823511,5.70802378 15.7647228,5.40059669 15.7647228,5.02482208 C15.7647228,4.64904747 16.0823511,4.34162039 16.4705948,4.34162039 L21.1765162,4.34162039 C21.56476,4.34162039 21.8823883,4.64904747 21.8823883,5.02482208 L21.8823883,9.69343864 C21.8823883,10.0692133 21.56476,10.3766403 21.1765162,10.3766403 C20.7882725,10.3766403 20.4706442,10.0692133 20.4706442,9.69343864 L20.4706442,6.67590913 L15.470633,11.8113913 C15.2235798,12.0732924 14.8117975,12.1074466 14.5294568,11.8911105 L11.9882689,10.0009048 L7.98825991,14.0774106 C7.84706935,14.2254383 7.65884219,14.2937468 7.47061502,14.2937468 C7.29413691,14.2937468 7.12944823,14.23681 6.98825767,14.1115649 C6.70587655,13.8496637 6.69412749,13.4169524 6.96471918,13.1436795 L11.4000085,8.62305155 C11.6470617,8.37256119 12.058844,8.33840697 12.3411847,8.5547431 Z" id="Mask" fill="#C0C5D2" fill-rule="nonzero"></path>
                            </g>
                        </g>
                    </g>
                </g>
            </g>
        </g>
    </g>
</svg>