<?xml version="1.0" encoding="UTF-8"?>
<svg width="22px" height="18px" viewBox="0 0 22 18" version="1.1" xmlns="http://www.w3.org/2000/svg" xmlns:xlink="http://www.w3.org/1999/xlink">
    <!-- Generator: sketchtool 55.2 (78181) - https://sketchapp.com -->
    <title>36EFB758-031A-4A53-86CD-63C6A4CD15CC</title>
    <desc>Created with sketchtool.</desc>
    <defs>
        <path d="M21,3 L3,3 C1.9,3 1,3.9 1,5 L1,17 C1,18.1 1.9,19 3,19 L8,19 L8,20 C8,20.55 8.45,21 9,21 L15,21 C15.55,21 16,20.55 16,20 L16,19 L21,19 C22.1,19 22.99,18.1 22.99,17 L23,5 C23,3.89 22.1,3 21,3 Z M20,17 L4,17 C3.45,17 3,16.55 3,16 L3,6 C3,5.45 3.45,5 4,5 L20,5 C20.55,5 21,5.45 21,6 L21,16 C21,16.55 20.55,17 20,17 Z M14.48,11.87 L10.5,14.15 C9.83,14.53 9,14.04 9,13.28 L9,8.72 C9,7.95 9.83,7.47 10.5,7.85 L14.48,10.13 C15.15,10.52 15.15,11.48 14.48,11.87 Z" id="path-1"></path>
    </defs>
    <g id="Desktop" stroke="none" stroke-width="1" fill="none" fill-rule="evenodd">
        <g id="Dashboard-(Expanded-Menu)" transform="translate(-24.000000, -656.000000)">
            <g id="Sidebar" transform="translate(0.000000, 70.000000)">
                <g id="Group">
                    <g id="Training" transform="translate(0.000000, 560.000000)">
                        <g id="Icon" transform="translate(23.000000, 23.000000)">
                            <g id="Training-Icon">
                                <polygon id="Bounding_Boxes" points="0 0 24 0 24 24 0 24"></polygon>
                                <mask id="mask-2" fill="white">
                                    <use xlink:href="#path-1"></use>
                                </mask>
                                <use fill="#C0C5D2" fill-rule="nonzero" xlink:href="#path-1"></use>
                            </g>
                        </g>
                    </g>
                </g>
            </g>
        </g>
    </g>
</svg>